<svg width="470" height="470" viewBox="0 0 470 470" fill="none" xmlns="http://www.w3.org/2000/svg">
<path d="M235 469.667C172.784 469.597 113.137 444.85 69.1432 400.857C25.1499 356.864 0.403611 297.216 0.333313 235C0.333313 229.342 2.58092 223.916 6.5817 219.915C10.5825 215.914 16.0087 213.667 21.6666 213.667C27.3246 213.667 32.7508 215.914 36.7516 219.915C40.7524 223.916 43 229.342 43 235C43 272.974 54.2606 310.095 75.3578 341.67C96.4551 373.244 126.441 397.853 161.525 412.385C196.608 426.917 235.213 430.719 272.457 423.311C309.702 415.903 343.913 397.616 370.764 370.765C397.616 343.913 415.902 309.702 423.311 272.458C430.719 235.213 426.917 196.608 412.385 161.525C397.853 126.442 373.244 96.4552 341.669 75.358C310.095 54.2608 272.974 43.0002 235 43.0002C229.342 43.0002 223.916 40.7526 219.915 36.7518C215.914 32.751 213.667 27.3248 213.667 21.6668C213.667 16.0089 215.914 10.5827 219.915 6.58188C223.916 2.58111 229.342 0.333496 235 0.333496C297.237 0.333496 356.926 25.0572 400.934 69.0658C444.943 113.074 469.667 172.763 469.667 235C469.667 297.238 444.943 356.926 400.934 400.935C356.926 444.943 297.237 469.667 235 469.667Z" fill="#171717"/>
<path d="M235 469.667C211.503 469.683 188.136 466.179 165.677 459.271C160.268 457.607 155.741 453.861 153.093 448.859C150.445 443.858 149.893 438.009 151.557 432.599C153.222 427.19 156.967 422.663 161.969 420.015C166.971 417.367 172.82 416.815 178.229 418.479C196.618 424.152 215.756 427.024 235 427C240.658 427 246.084 429.248 250.085 433.249C254.086 437.249 256.333 442.676 256.333 448.334C256.333 453.991 254.086 459.418 250.085 463.418C246.084 467.419 240.658 469.667 235 469.667ZM97.6041 419.542C92.5688 419.54 87.697 417.754 83.8542 414.5C59.8314 394.325 40.1167 369.52 25.8853 341.563C24.612 339.068 23.8425 336.348 23.6208 333.556C23.3991 330.764 23.7296 327.956 24.5933 325.292C25.4571 322.628 26.8372 320.16 28.6548 318.03C30.4724 315.899 32.692 314.148 35.1867 312.875C37.6821 311.601 40.4043 310.83 43.1976 310.609C45.9909 310.387 48.8005 310.718 51.4658 311.583C54.1311 312.448 56.5998 313.83 58.7306 315.649C60.8615 317.469 62.6129 319.691 63.8845 322.188C75.5493 345.071 91.6956 365.376 111.364 381.896C114.712 384.714 117.112 388.494 118.238 392.723C119.364 396.952 119.163 401.425 117.66 405.535C116.158 409.645 113.428 413.194 109.84 415.7C106.252 418.205 101.98 419.547 97.6041 419.542ZM24.7387 292.729C19.7096 292.733 14.8414 290.957 10.996 287.716C7.15064 284.475 4.57611 279.978 3.7283 275.021C-1.56284 244.103 -0.663689 212.443 6.37364 181.875C7.47644 177.198 10.1163 173.027 13.8707 170.028C17.6252 167.029 22.2771 165.376 27.0821 165.334C28.7422 165.33 30.3968 165.525 32.0101 165.917C37.5144 167.198 42.2845 170.613 45.2713 175.41C48.2582 180.208 49.2171 185.996 47.9374 191.5C42.1786 216.538 41.4491 242.47 45.7915 267.792C46.7375 273.366 45.4356 279.087 42.171 283.703C38.9064 288.319 33.9453 291.452 28.3747 292.417C27.1732 292.62 25.9572 292.724 24.7387 292.729ZM62.3845 130.937C58.4487 130.935 54.5901 129.844 51.2356 127.786C47.8811 125.727 45.1613 122.781 43.377 119.273C41.5928 115.764 40.8136 111.831 41.1256 107.908C41.4376 103.984 42.8287 100.223 45.1451 97.0414C58.979 78.0579 75.5641 61.2416 94.3542 47.1461C98.039 44.3669 102.531 42.8672 107.146 42.8752C111.625 42.8713 115.991 44.2773 119.626 46.894C123.261 49.5106 125.98 53.2051 127.398 57.4536C128.815 61.7022 128.86 66.2892 127.524 70.5643C126.189 74.8394 123.542 78.5858 119.958 81.2722C104.56 92.8217 90.9728 106.606 79.6457 122.168C77.658 124.881 75.0599 127.088 72.0616 128.612C69.0632 130.135 65.7477 130.931 62.3845 130.937ZM183.707 49.2093C178.497 49.2067 173.468 47.2976 169.568 43.842C165.669 40.3864 163.169 35.6233 162.54 30.4512C161.911 25.2791 163.197 20.0556 166.154 15.7662C169.112 11.4768 173.537 8.41795 178.595 7.16681C197.051 2.61784 215.991 0.32334 235 0.33353C240.658 0.33353 246.084 2.58114 250.085 6.58192C254.086 10.5827 256.333 16.0089 256.333 21.6669C256.333 27.3248 254.086 32.751 250.085 36.7518C246.084 40.7526 240.658 43.0002 235 43.0002C219.445 42.9885 203.947 44.8633 188.844 48.5836C187.163 48.9975 185.438 49.2083 183.707 49.2093Z" fill="#171717"/>
<path d="M206.552 313.229C200.897 313.216 195.476 310.97 191.469 306.979L134.584 250.083C132.574 248.109 130.975 245.756 129.879 243.16C128.783 240.564 128.212 237.777 128.199 234.96C128.187 232.143 128.732 229.351 129.804 226.745C130.877 224.14 132.455 221.772 134.447 219.78C136.439 217.788 138.806 216.21 141.412 215.138C144.017 214.065 146.809 213.52 149.627 213.533C152.444 213.545 155.231 214.116 157.827 215.212C160.422 216.308 162.775 217.907 164.749 219.917L206.551 261.731L305.251 163.021C309.263 159.081 314.67 156.884 320.293 156.91C325.917 156.935 331.303 159.181 335.28 163.157C339.257 167.134 341.502 172.52 341.528 178.144C341.553 183.768 339.357 189.174 335.416 193.187L221.635 306.979C217.628 310.97 212.207 313.216 206.552 313.229Z" fill="#F6EFBA"/>
</svg>
